<svg width="304" height="44" viewBox="0 0 304 44" fill="none" xmlns="http://www.w3.org/2000/svg">
<path d="M70.2511 9.65466H75.3419C78.961 9.65466 81.7879 10.4869 83.8227 12.1514C85.1307 13.1633 86.2476 14.4005 87.1211 15.8048H88.3694C89.4345 17.6258 89.9728 19.2006 89.9728 20.5234V20.7066C89.9267 20.8039 89.8648 20.8929 89.7896 20.97L89.3429 20.8898H88.6328V21.325C88.6355 21.3498 88.6327 21.3748 88.6244 21.3983C88.6162 21.4217 88.6028 21.443 88.5852 21.4606C88.5676 21.4782 88.5463 21.4916 88.5228 21.4999C88.4993 21.5081 88.4743 21.511 88.4496 21.5083H87.4761V22.2183H88.4496C88.5698 22.2183 88.6328 22.2985 88.6328 22.4016V22.5734C88.6328 23.8675 88.1289 25.5626 87.1211 27.6584C86.9951 27.6584 86.9378 27.7386 86.9378 27.8417V27.9218H88.6557C88.6793 27.9218 88.7026 27.9266 88.7242 27.9359C88.7459 27.9453 88.7653 27.9589 88.7814 27.9761C88.7976 27.9933 88.81 28.0136 88.8179 28.0358C88.8258 28.058 88.8291 28.0816 88.8275 28.1051C88.67 28.2076 88.4883 28.2668 88.3007 28.2769H86.7717L85.4489 29.8917H83.731C82.832 29.8917 82.3853 30.0406 82.3853 30.3269V30.4185H84.6759C84.8019 30.4185 84.8649 30.4987 84.8649 30.6018C84.4702 30.8119 84.1108 31.0824 83.7997 31.4035C81.555 33.0069 79.3847 33.8085 77.2889 33.8085H67.4796V30.6018C67.4796 30.4815 67.4223 30.4185 67.3078 30.4185H67.1245C65.5841 30.4185 64.834 30.3326 64.834 30.1551V30.0635C64.8339 30.0399 64.8387 30.0166 64.8481 29.995C64.8574 29.9734 64.8711 29.9539 64.8883 29.9378C64.9055 29.9217 64.9258 29.9093 64.948 29.9014C64.9702 29.8934 64.9937 29.8901 65.0172 29.8917H67.3078C67.4223 29.8917 67.4796 29.8344 67.4796 29.7085V28.2769C67.8747 28.2769 68.4702 28.2769 69.2662 28.1967V28.0134C68.4588 27.9504 67.8976 27.9218 67.5483 27.9218L67.4567 27.75V22.4932C67.4567 22.4073 67.3708 22.3157 67.1933 22.2183H66.3916C66.3683 22.2211 66.3448 22.2186 66.3227 22.2109C66.3006 22.2032 66.2805 22.1907 66.264 22.1741C66.2474 22.1576 66.2349 22.1375 66.2272 22.1154C66.2196 22.0933 66.217 22.0698 66.2198 22.0466V21.6915C66.2198 21.5541 66.4603 21.4625 66.9298 21.4167L67.1016 21.5083L67.7315 20.97C68.5046 20.97 68.8768 20.8841 68.8768 20.7066V15.988C68.8768 15.8506 68.4015 15.7247 67.4452 15.6216V9.8952L67.5368 9.72338C68.7623 9.68329 69.6556 9.65466 70.2511 9.65466ZM65.4295 21.4167H65.607C65.733 21.4167 65.7903 21.4968 65.7903 21.5999V22.0466C65.7903 22.1611 65.733 22.2183 65.607 22.2183H65.252V21.5999C65.2749 21.4796 65.3322 21.4167 65.4295 21.4167ZM67.0444 15.8048H67.2162C67.3421 15.8048 67.3994 15.885 67.3994 15.988V16.1598C67.3994 16.2629 67.2505 16.3545 66.9528 16.4232L66.8611 16.2515V15.988C66.8783 15.8678 66.9413 15.8048 67.0444 15.8048ZM73.916 14.6595V15.633C73.916 15.7533 73.9905 15.8163 74.0878 15.8163H75.1644C75.1879 15.8162 75.2113 15.821 75.2329 15.8303C75.2545 15.8397 75.274 15.8534 75.2901 15.8706C75.3062 15.8878 75.3186 15.908 75.3265 15.9302C75.3345 15.9524 75.3377 15.976 75.3362 15.9995V20.718C75.3362 20.7638 75.2503 20.8498 75.0728 20.9815L74.6261 20.9013H74.0878L73.7328 21.5197H72.9311C72.9075 21.5197 72.8842 21.5245 72.8626 21.5338C72.841 21.5432 72.8215 21.5568 72.8054 21.574C72.7893 21.5912 72.7769 21.6115 72.7689 21.6337C72.761 21.6559 72.7577 21.6795 72.7593 21.703V22.2298H73.7328C73.7824 22.2298 73.874 22.3214 74.0077 22.5047L73.916 22.9513V26.4215C73.9762 26.5302 74.0077 26.6524 74.0077 26.7766C74.0077 26.9008 73.9762 27.0229 73.916 27.1316V27.4866L74.0077 27.9333H75.0728C75.1973 27.9302 75.3203 27.9619 75.4278 28.0249C75.5355 27.9625 75.6583 27.9308 75.7828 27.9333L75.8744 28.1165L75.5194 28.2883C75.3992 28.2883 75.3362 28.2883 75.3362 28.2082L74.7177 28.2883H74.0077L73.916 28.735V28.9182C73.916 29.0442 73.9905 29.1015 74.0878 29.1015H75.9661C76.9597 28.9947 77.9279 28.7197 78.8293 28.2883C79.7283 28.2368 80.3754 28.2082 80.7877 28.2082L80.8793 28.0249C80.3067 27.9619 79.8371 27.9333 79.5393 27.9333H79.3504V27.7615C80.5003 26.8847 81.3424 25.6657 81.7554 24.2799L82.2021 22.4131L81.9215 22.2298H81.1198C81.0968 22.2328 81.0734 22.2303 81.0515 22.2227C81.0296 22.215 81.0098 22.2023 80.9936 22.1856C80.9775 22.1689 80.9655 22.1487 80.9585 22.1266C80.9516 22.1044 80.95 22.0809 80.9537 22.058V21.703C80.9537 21.6171 81.0396 21.5254 81.2172 21.4281C81.2296 21.4261 81.2424 21.4272 81.2544 21.4311C81.2664 21.435 81.2773 21.4417 81.2863 21.4506C81.2952 21.4595 81.3019 21.4705 81.3058 21.4825C81.3097 21.4945 81.3107 21.5073 81.3088 21.5197C81.5194 21.5512 81.7346 21.5162 81.9244 21.4198C82.1143 21.3233 82.2694 21.1701 82.3682 20.9815H82.9408L83.5535 20.9013V20.718C83.2822 18.8643 82.373 17.1633 80.9824 15.9079C79.6768 15.8048 78.8693 15.5929 78.5601 15.278C77.8377 14.8147 77.011 14.5391 76.155 14.4763H74.105C73.9618 14.482 73.9046 14.5393 73.9046 14.6481L73.916 14.6595ZM79.7169 20.9585H80.6846C80.8106 20.9585 80.8678 21.0387 80.8678 21.1418V21.2334C80.8678 21.348 80.8106 21.4052 80.6846 21.4052H79.8829C79.7684 21.4052 79.7169 21.348 79.7169 21.2334V20.9585Z" fill="white"/>
<path d="M96.9592 9.66614H102.205C102.308 9.66614 102.777 10.926 103.636 13.3997L103.9 13.5715H104.793C104.953 13.6918 105.658 15.5929 106.923 19.2979L107.553 21.0731L107.37 21.1647H105.32V21.2563C105.32 21.5713 105.497 21.7431 105.858 21.7831L106.396 21.703H106.476C106.728 21.8366 107.561 24.0871 108.973 28.4544L108.79 28.5517C108.674 28.51 108.556 28.4775 108.435 28.4544C108.383 28.4544 108.355 28.4887 108.355 28.5517L107.725 28.4544H107.278C107.164 28.4544 107.106 28.5346 107.106 28.6434C107.421 29.5882 107.627 30.0635 107.725 30.0635H109.511C109.626 30.0635 109.683 30.138 109.683 30.2468V30.3212C109.683 30.4472 109.626 30.5102 109.511 30.5102H107.553C107.429 30.5121 107.306 30.4804 107.198 30.4185C107.086 30.4796 106.959 30.5111 106.831 30.5102H104.965L104.346 30.4185L104.255 30.6018C104.255 30.6249 104.261 30.6476 104.27 30.6685C104.28 30.6895 104.294 30.7082 104.311 30.7237C104.328 30.7392 104.348 30.7511 104.37 30.7587C104.392 30.7663 104.415 30.7694 104.438 30.7678H109.775C109.954 30.7678 110.336 31.7509 110.92 33.7169V33.7857H104.255C104.159 33.7857 103.804 32.7721 103.189 30.7449H98.4709C98.359 30.6957 98.2381 30.6703 98.1159 30.6703C97.9937 30.6703 97.8728 30.6957 97.7609 30.7449C97.6406 30.7449 97.5776 30.6934 97.5776 30.5789C97.5901 30.5808 97.6029 30.5798 97.6149 30.5759C97.6269 30.572 97.6378 30.5653 97.6467 30.5563C97.6557 30.5474 97.6624 30.5365 97.6663 30.5245C97.6702 30.5125 97.6712 30.4997 97.6692 30.4873C98.763 30.4243 99.5647 30.3956 100.074 30.3956H102.938C102.961 30.3984 102.984 30.3959 103.006 30.3882C103.028 30.3805 103.049 30.368 103.065 30.3514C103.082 30.3349 103.094 30.3148 103.102 30.2927C103.11 30.2706 103.112 30.2471 103.109 30.2239L102.846 30.0406H101.059C100.991 30.0406 100.813 29.7715 100.532 29.2389H99.8224V29.3305C99.8224 29.382 99.8224 29.6169 99.9025 30.0406H99.1008C99.0378 30.0406 98.8317 29.7715 98.4824 29.2389H93.3286C92.9851 29.2389 92.7789 29.4737 92.7102 29.9432L92.882 30.0406H94.3937C94.514 30.0406 94.577 30.1151 94.577 30.2239V30.2983L93.4317 33.7857H86.6288V33.694L87.8771 30.1322L85.2086 30.0406C85.0884 30.0406 85.0254 29.9833 85.0254 29.8688C85.3232 28.9125 85.535 28.4315 85.6553 28.4315H88.0604C88.4898 28.4315 88.7819 27.9333 88.9422 26.9255C89.0453 26.9255 89.3431 26.1753 89.8355 24.7036L90.8205 21.8404V21.7603H89.9272C89.8069 21.1876 89.784 21.0101 89.8642 21.1876C89.784 21.096 90.5743 21.0559 92.2406 21.0559C92.3284 21.0559 92.8018 19.8419 93.6608 17.4139L94.9091 13.7605V13.6689H94.4625V13.5773C94.8306 12.264 95.3095 10.9843 95.8941 9.75205L96.9592 9.66614ZM99.8224 17.4082C99.181 19.8935 98.7343 21.1418 98.4824 21.1418H96.4323C96.3178 21.1418 96.2319 21.3193 96.1689 21.6801H96.7072C97.0565 21.7144 97.234 21.8003 97.234 21.9435C96.6614 23.7759 96.3407 24.7208 96.3407 24.8067L96.7874 24.8811L97.4173 24.8067C97.4992 24.8489 97.5888 24.8742 97.6807 24.8811L98.219 24.8067C98.2705 24.8067 98.2991 24.8067 98.2991 24.8811L98.7458 24.8067H100.258C100.321 24.8067 100.349 24.8067 100.349 24.8811C100.945 24.8315 101.243 24.7456 101.243 24.6234V24.5318C100.901 23.7964 100.632 23.0292 100.441 22.2413C100.441 21.9321 100.172 21.7545 99.6391 21.7144C99.6316 21.5488 99.5668 21.391 99.4559 21.2678C99.4559 21.1418 99.5418 21.0845 99.6391 21.0845H101.151C100.853 19.9965 100.471 18.7825 100.006 17.4426L99.8224 17.4082Z" fill="white"/>
<path d="M110.118 9.65466C110.227 9.65466 110.284 9.65468 110.284 9.7463C111.183 9.68331 111.836 9.65466 112.26 9.65466H118.49C120.746 9.65466 122.262 9.86082 123.037 10.2731C123.416 10.3372 123.763 10.5268 124.022 10.8114C123.959 10.9189 123.927 11.0419 123.93 11.1664C124.858 11.6131 125.66 12.5942 126.335 14.1098C126.684 15.0284 126.896 15.993 126.965 16.973C126.965 17.1906 126.879 17.9064 126.702 19.1147C127.051 19.1147 127.229 19.1777 127.229 19.2979C126.671 20.9972 125.537 22.4477 124.022 23.398L122.682 23.9248V24.0164C123.048 24.4668 123.377 24.9455 123.667 25.448C123.534 25.5403 123.381 25.5992 123.22 25.6198L123.312 25.8031V25.8947C122.235 25.9462 121.519 25.9748 121.17 25.9748V26.0665C121.17 26.1925 121.25 26.2497 121.353 26.2497H123.575L124.377 27.2232C124.642 27.2167 124.9 27.3022 125.109 27.4651C125.318 27.628 125.464 27.8582 125.522 28.1165V28.2082C125.224 28.2082 125.076 28.2711 125.076 28.3914C126.927 31.0637 127.851 32.4304 127.847 32.4915C127.612 32.5373 127.492 32.5945 127.492 32.6633C127.745 32.9931 127.953 33.3551 128.111 33.7398L127.939 33.82H123.472C122.974 33.82 122.172 33.82 121.067 33.7398C120.803 33.3999 120.565 33.04 120.357 32.6633C120.496 32.5948 120.649 32.5633 120.804 32.5717V32.4915C119.074 29.8726 118.212 28.4448 118.215 28.2082H118.57V28.0249C118.525 27.7762 118.393 27.5516 118.198 27.3904C118.003 27.2291 117.758 27.1416 117.505 27.1431C117.041 26.5704 116.681 26.2497 116.429 26.2497H114.854V26.6964C114.855 26.7071 114.853 26.7179 114.85 26.728C114.846 26.7382 114.84 26.7474 114.832 26.755C114.825 26.7626 114.816 26.7685 114.805 26.7722C114.795 26.7759 114.785 26.7774 114.774 26.7766L114.854 26.9598V31.0599H115.839C115.959 31.0599 116.022 31.1401 116.022 31.2431C116.022 31.3462 115.959 31.4149 115.839 31.4149H114.854C114.854 31.7127 114.825 31.8616 114.774 31.8616L114.854 32.0448V33.1099C114.855 33.2329 114.828 33.3545 114.774 33.465C114.818 33.5504 114.846 33.6438 114.854 33.7398L114.682 33.82H111.029C110.456 33.82 109.534 33.82 108.343 33.7398V31.5982C108.343 31.4779 108.423 31.4149 108.532 31.4149H109.5V31.1515H108.532C108.406 31.1515 108.343 31.0943 108.343 30.9683V26.3413L107.896 26.2497H106.127C106.001 26.2497 105.938 26.1925 105.938 26.0665L106.127 25.9748C107.604 25.9443 108.343 25.8871 108.343 25.8031C108.343 25.6198 108.406 25.5282 108.532 25.5282C108.609 25.5791 108.698 25.6105 108.79 25.6198L108.887 25.448V19.3781C108.887 19.2636 108.956 19.2063 109.053 19.2063H109.5L109.597 18.668C109.517 18.6178 109.427 18.5865 109.334 18.5764C108.807 18.6394 108.509 18.668 108.435 18.668C108.449 18.5719 108.441 18.4739 108.41 18.3816C108.38 18.2893 108.329 18.2054 108.26 18.1364C108.192 18.0675 108.109 18.0155 108.017 17.9845C107.924 17.9535 107.827 17.9444 107.73 17.9579V17.5113L108.343 17.1562V11.1664L108.887 10.8114V9.91809C108.887 9.80356 108.956 9.7463 109.053 9.7463H109.7C109.845 9.74986 109.988 9.71841 110.118 9.65466ZM109.763 18.6566V18.7482H109.929V18.6566H109.763ZM110.21 18.6566V18.7482H110.382V18.6566H110.21ZM112.432 25.9634V26.055C112.432 26.181 112.506 26.2383 112.615 26.2383H114.218C114.333 26.2383 114.384 26.181 114.384 26.055V25.9634H112.432ZM114.837 14.3847C114.838 14.3954 114.836 14.4062 114.832 14.4163C114.829 14.4264 114.823 14.4356 114.815 14.4433C114.808 14.4509 114.798 14.4568 114.788 14.4605C114.778 14.4642 114.767 14.4657 114.757 14.4648C114.808 15.0375 114.837 15.507 114.837 15.8048V16.3431C114.837 16.4061 114.808 16.4347 114.757 16.4347L114.837 16.6065V16.6981C114.837 17.2307 114.596 17.4998 114.127 17.4998V18.0381C114.596 18.0725 114.837 18.1584 114.837 18.3015H114.757C114.8 18.3834 114.827 18.4728 114.837 18.5649H116.978V18.7482H116.177L115.822 19.1948H115.375V20.0881H118.135C119.332 20.0881 120.139 19.7904 120.552 19.1948C121.124 19.1948 121.434 18.9829 121.434 18.5649H120.632L120.46 18.4848C120.565 18.1351 120.623 17.7731 120.632 17.4082V16.6981C120.632 16.0739 120.094 15.3925 119.029 14.6481C118.897 14.5221 118.301 14.4362 117.253 14.3847L117.07 14.4648L116.887 14.3847C116.876 14.3826 116.865 14.3833 116.854 14.3866C116.843 14.3899 116.834 14.3957 116.826 14.4036C116.818 14.4115 116.812 14.4212 116.809 14.4319C116.805 14.4425 116.805 14.4539 116.807 14.4648C116.686 14.4311 116.564 14.4043 116.44 14.3847C115.919 14.4362 115.627 14.4648 115.558 14.4648C115.326 14.4229 115.09 14.3961 114.854 14.3847H114.837ZM115.112 25.6084L114.928 25.5167C114.928 25.637 114.871 25.7 114.757 25.7C114.8 25.7818 114.827 25.8713 114.837 25.9634C115.409 25.9119 115.879 25.8832 116.177 25.8832H116.268L116.44 25.9634L116.807 25.345C116.572 24.8124 116.423 24.5433 116.36 24.5433H115.558C115.432 24.5433 115.341 24.8983 115.283 25.6084H115.112ZM119.567 32.6518H119.739C119.755 32.7883 119.82 32.9144 119.922 33.0069V33.213C119.842 33.213 119.721 33.0584 119.567 32.7663V32.6518ZM120.185 33.5451H120.277V33.7284H120.185V33.5451ZM127.057 18.5649H127.32V18.7482H127.057V18.5649ZM127.675 18.5649H127.95V18.7482H127.675V18.5649ZM128.122 18.5649H128.924V18.7482H128.122V18.5649Z" fill="white"/>
<path d="M134.101 9.65466C134.753 9.71193 135.074 9.80356 135.074 9.91809V15.0718H136.042C136.065 15.0718 136.089 15.0766 136.11 15.0859C136.132 15.0953 136.151 15.1089 136.168 15.1261C136.184 15.1433 136.196 15.1636 136.204 15.1858C136.212 15.208 136.215 15.2316 136.214 15.2551V16.9386L136.305 17.3853C137.078 17.3853 137.451 17.0875 137.451 16.492C137.399 16.4131 137.367 16.3226 137.359 16.2286L137.451 16.0568C137.388 15.9492 137.356 15.8263 137.359 15.7017C137.72 15.5357 137.897 15.3295 137.897 15.0718H137.096C136.975 15.0718 136.912 15.0146 136.912 14.9C137.015 14.9 138.645 13.1821 141.803 9.7463H149.619V9.83791C148.856 10.6854 147.227 12.4033 144.734 14.9917V15.0661H145.628V15.2493C144.97 16.01 144.258 16.722 143.498 17.3795H142.421L141.986 17.4712V17.3795L141.803 17.4712H141.093V17.643H142.959C143.08 17.643 143.143 17.7231 143.143 17.8262C143.091 17.8262 142.255 18.6966 140.646 20.4031V20.4947C141.344 21.3651 142.65 22.8731 144.563 25.0186C144.466 25.1143 144.342 25.1782 144.208 25.2018C144.208 25.4824 144.534 25.6542 145.181 25.7286L145.445 26.0837V26.2669H144.643V26.5303C144.941 26.5303 145.09 26.5303 145.09 26.6219L145.536 26.5303H146.51C146.962 26.5303 147.231 26.6449 147.311 26.8854L147.22 27.0686L146.785 26.977C146.515 26.9813 146.246 27.012 145.983 27.0686C145.904 27.0168 145.813 26.9853 145.719 26.977L145.536 27.0686C145.457 27.0168 145.367 26.9853 145.273 26.977L145.181 27.1488C145.983 27.9619 147.195 29.3859 148.817 31.4206C148.943 31.4206 149.39 31.8902 150.146 32.8351V32.9267L150.071 33.0985C150.115 33.1841 150.14 33.2776 150.146 33.3734H150.593C150.684 33.3734 150.776 33.465 150.873 33.6367C150.873 33.7513 150.81 33.8085 150.684 33.8085H145.364C144.792 33.8085 143.876 33.8086 142.696 33.7284C142.619 33.5853 142.502 33.4672 142.36 33.3881C142.218 33.3089 142.057 33.272 141.894 33.2817V33.0985C141.966 33.021 142.024 32.932 142.066 32.8351V32.7434C141.932 32.7434 141.047 31.6802 139.409 29.5538L137.451 27.1488C137.451 27.0342 137.508 26.977 137.622 26.977L137.989 27.0686C138.068 27.0168 138.158 26.9853 138.252 26.977V27.0686L138.424 26.977H139.409C139.523 26.977 139.581 26.914 139.581 26.7937C139.484 26.6996 139.36 26.6393 139.226 26.6219C138.848 26.6219 138.08 26.5876 136.935 26.5303L136.763 26.2669C136.776 26.2689 136.789 26.2678 136.801 26.2639C136.813 26.26 136.824 26.2533 136.832 26.2444C136.841 26.2355 136.848 26.2245 136.852 26.2125C136.856 26.2005 136.857 26.1878 136.855 26.1753C136.936 26.2228 137.025 26.2539 137.118 26.2669L137.29 26.1753C137.399 26.2357 137.521 26.2672 137.645 26.2669H137.828V26.1753C137.828 26.0608 137.68 25.8832 137.382 25.6484L137.21 25.7286C136.912 25.6542 136.763 25.5683 136.763 25.4652V25.3736L137.473 24.8468C137.526 24.7638 137.557 24.6695 137.565 24.5719C137.451 24.3085 137.336 24.1653 137.21 24.1367H137.118C136.712 24.4375 136.349 24.7942 136.042 25.1961C135.807 25.1961 135.687 25.2533 135.687 25.3679V25.4595L136.214 25.8145C136.265 25.8934 136.297 25.9839 136.305 26.0779C136.228 26.1532 136.139 26.2151 136.042 26.2612H135.24C135.12 26.2612 135.057 26.3356 135.057 26.433V33.631C135.06 33.6542 135.057 33.6778 135.049 33.6999C135.042 33.722 135.029 33.7421 135.013 33.7586C134.996 33.7752 134.976 33.7877 134.954 33.7954C134.932 33.803 134.908 33.8056 134.885 33.8028H131.34C130.768 33.8028 129.852 33.8028 128.672 33.7227L128.58 33.5394V26.4387C128.58 26.3242 128.655 26.2669 128.764 26.2669H129.743L129.834 25.8203V25.7286C129.411 25.7286 129.205 25.637 129.205 25.4652V25.3736C129.205 25.1961 129.411 25.1102 129.834 25.1102V24.6635C129.834 24.6005 129.834 24.5719 129.909 24.5719L129.834 24.4001V17.9178C129.834 17.7976 129.743 17.7346 129.554 17.7346L127.613 17.643L127.521 17.4712L127.704 17.3795C128.769 17.3223 129.479 17.2879 129.834 17.2879V15.5128L129.743 15.0661H128.769C128.643 15.0661 128.586 15.0088 128.586 14.8943V9.91809C128.586 9.80356 128.661 9.7463 128.769 9.7463H129.124C132.343 9.73485 133.998 9.73483 134.101 9.65466ZM128.506 25.1159H128.689C128.713 25.1158 128.736 25.1206 128.758 25.13C128.779 25.1393 128.799 25.153 128.815 25.1702C128.831 25.1874 128.843 25.2077 128.851 25.2299C128.859 25.2521 128.863 25.2756 128.861 25.2991V25.4709C128.861 25.5568 128.769 25.6427 128.598 25.7344C128.506 25.7344 128.42 25.6427 128.334 25.4709V25.2991C128.351 25.1961 128.409 25.1102 128.506 25.1102V25.1159ZM134.009 17.4769V17.6487H134.456V17.5685L134.364 17.3853C134.257 17.4483 134.133 17.4783 134.009 17.4712V17.4769ZM136.231 17.9236C136.231 17.9471 136.236 17.9704 136.245 17.9921C136.254 18.0137 136.268 18.0332 136.285 18.0493C136.302 18.0654 136.323 18.0778 136.345 18.0857C136.367 18.0937 136.391 18.0969 136.414 18.0953L136.506 17.9236V17.7518H136.414C136.294 17.7518 136.231 17.8148 136.231 17.9178V17.9236ZM139.701 33.0298H140.411C140.508 33.0298 140.629 33.1443 140.766 33.3791H139.793C139.705 33.3791 139.613 33.2874 139.518 33.1042L139.701 33.0298Z" fill="white"/>
<path d="M160.23 9.6776H175.015C175.14 9.67731 175.262 9.70884 175.37 9.76921C175.479 9.70954 175.601 9.67806 175.726 9.6776C175.823 9.77292 175.888 9.89754 175.909 10.0326L175.817 10.2159C175.86 10.4833 175.984 10.7312 176.172 10.9259V14.316L176.081 14.4877L175.634 14.4076H173.784L173.212 14.4877C173.077 14.427 172.93 14.3995 172.782 14.4076L172.164 14.4877C172.053 14.4343 171.932 14.4069 171.809 14.4076L171.625 14.4877C171.562 14.4877 171.534 14.4877 171.534 14.4076L171.099 14.4877H170.205V17.5857C170.205 17.7117 169.965 17.8033 169.495 17.8663C169.495 18.0896 169.438 18.2042 169.323 18.2042H168.522C168.407 18.2042 168.35 18.2958 168.35 18.3874C168.35 18.479 168.424 18.5592 168.522 18.5592H169.415L169.587 18.6508L169.495 19.0975V19.8992L170.033 20.2542C170.033 20.3687 169.678 20.4604 168.968 20.5176V25.7344C168.968 25.9004 168.671 26.0207 168.075 26.0894V26.181H169.415C169.764 26.3413 169.942 26.4616 169.942 26.5361V33.5452C169.945 33.5684 169.942 33.5919 169.934 33.614C169.927 33.6361 169.914 33.6562 169.898 33.6727C169.881 33.6893 169.861 33.7018 169.839 33.7095C169.817 33.7171 169.793 33.7197 169.77 33.7169H166.22C165.647 33.7169 164.742 33.6826 163.568 33.6253C163.505 32.5373 163.477 31.7413 163.477 31.2317V26.4444C162.939 26.3299 162.675 26.2154 162.675 26.0894L162.503 26.181H161.702V26.0894C161.702 26.0663 161.708 26.0436 161.717 26.0227C161.727 26.0017 161.741 25.9829 161.758 25.9674C161.775 25.9519 161.795 25.94 161.817 25.9325C161.839 25.9249 161.862 25.9218 161.885 25.9233L162.32 26.0149C162.403 25.9629 162.497 25.9315 162.595 25.9233V20.5978C162.595 20.4832 162.652 20.426 162.767 20.426H163.568V20.0423C163.271 20.0423 163.122 19.9851 163.122 19.8706V18.7253C163.124 18.7005 163.122 18.6755 163.113 18.6521C163.105 18.6286 163.092 18.6073 163.074 18.5897C163.057 18.5721 163.035 18.5587 163.012 18.5504C162.988 18.5422 162.963 18.5393 162.939 18.542H162.148C162.022 18.542 161.965 18.4848 161.965 18.3702C161.965 18.2557 162.039 18.187 162.148 18.187H162.956L163.311 17.7575H163.757L163.849 16.9558C163.849 16.8413 163.815 16.784 163.757 16.784L163.849 16.3374V14.8886C163.855 14.7741 163.824 14.6607 163.76 14.5656C163.696 14.4706 163.602 14.399 163.494 14.3618C163.431 14.3618 163.402 14.3617 163.402 14.4419L162.956 14.3618H157.802C157.777 14.3645 157.752 14.3616 157.729 14.3534C157.705 14.3451 157.684 14.3317 157.666 14.3141C157.649 14.2965 157.635 14.2752 157.627 14.2517C157.619 14.2283 157.616 14.2033 157.619 14.1785V10.8114C157.384 10.8114 157.264 10.7542 157.264 10.6396V10.548C157.264 10.4239 157.296 10.3018 157.355 10.193C157.295 10.0844 157.263 9.96215 157.264 9.83792C157.276 9.83988 157.289 9.83886 157.301 9.83495C157.313 9.83104 157.324 9.82434 157.333 9.81541C157.342 9.80648 157.348 9.79558 157.352 9.78357C157.356 9.77156 157.357 9.75879 157.355 9.74631C158.661 9.73486 159.611 9.6776 160.23 9.6776ZM161.02 18.1813H161.203C161.318 18.1813 161.375 18.2729 161.375 18.3645C161.378 18.3877 161.375 18.4113 161.368 18.4334C161.36 18.4555 161.348 18.4755 161.331 18.4921C161.314 18.5086 161.294 18.5212 161.272 18.5288C161.25 18.5365 161.227 18.5391 161.203 18.5363H161.02C160.997 18.5391 160.973 18.5365 160.951 18.5288C160.929 18.5212 160.909 18.5086 160.893 18.4921C160.876 18.4755 160.863 18.4555 160.856 18.4334C160.848 18.4113 160.846 18.3877 160.848 18.3645C160.866 18.2443 160.923 18.1813 161.02 18.1813ZM163.528 25.1961V25.3621H163.62V25.1961H163.528Z" fill="#36F097"/>
<path d="M177.564 9.65466H190.208C190.288 9.65466 190.374 9.74057 190.471 9.91809V12.9531C190.471 13.0332 190.563 13.1191 190.734 13.2165H191.089C191.217 13.2182 191.344 13.1866 191.456 13.1248C191.748 13.1993 191.891 13.2909 191.891 13.3883V13.5715C191.894 13.5947 191.891 13.6183 191.884 13.6404C191.876 13.6625 191.863 13.6826 191.847 13.6991C191.83 13.7156 191.81 13.7282 191.788 13.7359C191.766 13.7435 191.743 13.7461 191.719 13.7433H191.273V14.19C191.277 14.2149 191.275 14.2404 191.267 14.2645C191.259 14.2885 191.245 14.3103 191.228 14.3282C191.21 14.346 191.188 14.3594 191.164 14.3673C191.14 14.3751 191.114 14.3771 191.089 14.3732H184.951C184.332 14.3732 183.382 14.3732 182.088 14.4648V15.2665C182.088 15.381 182.162 15.4383 182.254 15.4383H183.055C183.181 15.4383 183.244 15.5128 183.244 15.6216V19.4697H191.015C191.129 19.4697 191.187 19.5441 191.187 19.6357V20.9815C191.187 21.0903 190.866 21.1819 190.213 21.2392L190.03 21.1475L189.503 21.2392C189.418 21.191 189.325 21.1599 189.228 21.1475L189.137 21.5942V23.1059L189.228 23.9992L188.965 24.1882H181.389C181.389 24.3886 181.183 24.5032 180.77 24.5433L180.232 24.4459H180.066C179.94 24.4459 179.877 24.5261 179.877 24.6349V24.7093H180.421L181.314 24.8009V27.75C181.314 28.065 181.486 28.2368 181.836 28.2711C181.835 28.3962 181.868 28.5191 181.933 28.6262C181.869 28.7335 181.835 28.8562 181.836 28.9812V29.0728H190.305C190.414 29.0728 190.505 29.3706 190.563 29.9662H191.891C192.017 29.9662 192.074 30.0406 192.074 30.1379C192.078 30.1629 192.076 30.1884 192.068 30.2125C192.061 30.2365 192.047 30.2583 192.029 30.2762C192.011 30.294 191.99 30.3074 191.966 30.3152C191.942 30.3231 191.916 30.3251 191.891 30.3212H190.918L190.471 30.4185V33.7856H175.886C175.873 33.7876 175.861 33.7866 175.849 33.7827C175.837 33.7788 175.826 33.7721 175.817 33.7631C175.808 33.7542 175.801 33.7433 175.797 33.7313C175.793 33.7192 175.792 33.7065 175.794 33.694L175.611 33.7856H175.084C174.993 33.7856 174.901 33.6997 174.809 33.5222V33.339C174.807 33.3265 174.808 33.3138 174.812 33.3017C174.816 33.2897 174.823 33.2788 174.832 33.2699C174.841 33.2609 174.852 33.2542 174.864 33.2503C174.876 33.2464 174.888 33.2454 174.901 33.2474L174.809 33.0756V30.9225L174.357 30.848H173.572C173.446 30.848 173.389 30.785 173.389 30.659V30.4758C173.389 30.3612 173.464 30.304 173.572 30.304C174.563 30.2467 175.33 30.2124 175.863 30.2124H176.218V30.0463L175.325 29.949H174.981C174.855 29.949 174.798 29.8631 174.798 29.6913L174.889 29.5023C174.827 29.3948 174.795 29.2718 174.798 29.1473C174.798 29.0728 174.975 28.9812 175.336 28.8896C175.397 28.7751 175.429 28.6471 175.428 28.5174C175.428 28.2654 175.216 28.1222 174.798 28.0879V25.0472L174.889 24.8754L174.718 24.7838H173.572C173.446 24.7838 173.389 24.7265 173.389 24.6177C173.389 24.5089 173.464 24.4287 173.572 24.4287H174.638C174.752 24.4287 174.809 24.3715 174.809 24.2455V21.3193C174.809 21.1933 174.901 21.1304 175.084 21.1304C175.267 21.1304 175.829 21.1304 176.762 21.0559V15.6273C176.762 15.444 176.441 15.3467 175.794 15.3467H175.611V13.9323L176.241 13.5773V13.394C176.241 13.2795 176.178 13.2222 176.058 13.2222H174.981C174.956 13.2261 174.931 13.2241 174.907 13.2162C174.883 13.2084 174.861 13.195 174.843 13.1772C174.825 13.1593 174.812 13.1375 174.804 13.1135C174.796 13.0894 174.794 13.0639 174.798 13.039V9.92382L174.889 9.75204C176.092 9.68332 176.98 9.65466 177.564 9.65466ZM174.191 20.3401H174.638C174.752 20.3401 174.809 20.3974 174.809 20.5119V20.9585C174.812 20.9816 174.81 21.005 174.802 21.0269C174.795 21.0488 174.782 21.0686 174.765 21.0847C174.748 21.1009 174.728 21.1129 174.706 21.1198C174.684 21.1267 174.66 21.1284 174.638 21.1246H174.191C174.065 21.1246 174.002 21.0673 174.002 20.9585V20.5119C174.029 20.3974 174.092 20.3401 174.191 20.3401ZM177.398 30.2067H178.199V30.0406H177.564C177.455 30.0578 177.398 30.115 177.398 30.2067ZM187.001 30.2983V30.6533C187.001 30.7793 187.064 30.8423 187.19 30.8423H188.421C188.488 30.7619 188.525 30.6606 188.525 30.556C188.525 30.4513 188.488 30.35 188.421 30.2696L187.001 30.2983Z" fill="#36F097"/>
<path d="M193.199 10C193.308 10 193.365 10 193.365 10.0916C194.259 10.0287 194.917 10 195.341 10H201.571C203.828 10 205.343 10.2062 206.118 10.6185C206.497 10.6825 206.844 10.8721 207.103 11.1567C207.04 11.2643 207.008 11.3872 207.011 11.5118C207.939 11.9584 208.741 12.9396 209.416 14.4551C209.765 15.3737 209.977 16.3383 210.046 17.3183C210.046 17.5359 209.96 18.2517 209.783 19.46C210.132 19.46 210.31 19.523 210.31 19.6432C209.753 21.3425 208.618 22.7931 207.103 23.7433L205.763 24.2702V24.3618C206.129 24.8122 206.458 25.2909 206.748 25.7934C206.615 25.8857 206.462 25.9446 206.301 25.9652L206.393 26.1484V26.24C205.316 26.2915 204.601 26.3202 204.251 26.3202V26.4118C204.251 26.5378 204.326 26.5951 204.435 26.5951H206.656L207.458 27.5685C207.723 27.5621 207.982 27.6476 208.19 27.8104C208.399 27.9733 208.545 28.2035 208.603 28.4618V28.5535C208.306 28.5535 208.157 28.6165 208.157 28.7367C210.008 31.409 210.932 32.7757 210.928 32.8368C210.693 32.8826 210.573 32.9399 210.573 33.0086C210.826 33.3385 211.034 33.7005 211.192 34.0852L211.02 34.1653H206.553C206.049 34.1653 205.248 34.1653 204.148 34.0852C203.884 33.7453 203.647 33.3853 203.438 33.0086C203.577 32.9402 203.731 32.9086 203.885 32.917V32.8368C202.155 30.2179 201.293 28.7902 201.296 28.5535H201.652V28.3702C201.605 28.1221 201.473 27.8981 201.278 27.737C201.084 27.576 200.839 27.488 200.586 27.4884C200.123 26.9158 199.762 26.5951 199.51 26.5951H197.889V27.0417C197.889 27.0933 197.889 27.1219 197.815 27.1219L197.889 27.3051V31.4052H198.88C199 31.4052 199.063 31.4854 199.063 31.5885C199.063 31.6915 199 31.7603 198.88 31.7603H197.889C197.889 32.058 197.889 32.2069 197.815 32.2069L197.889 32.3902V33.4553C197.892 33.5778 197.867 33.6993 197.815 33.8103C197.858 33.8959 197.883 33.9894 197.889 34.0852L197.723 34.1653H194.07C193.497 34.1653 192.575 34.1653 191.384 34.0852V31.9435C191.384 31.8232 191.464 31.7603 191.567 31.7603H192.541V31.4969H191.59C191.565 31.5008 191.54 31.4987 191.516 31.4909C191.492 31.4831 191.47 31.4697 191.452 31.4518C191.434 31.4339 191.421 31.4121 191.413 31.3881C191.405 31.3641 191.403 31.3386 191.407 31.3136V26.6867L190.96 26.5951H189.185C189.16 26.599 189.135 26.5969 189.111 26.5891C189.087 26.5813 189.065 26.5679 189.047 26.55C189.029 26.5322 189.016 26.5103 189.008 26.4863C189 26.4623 188.998 26.4368 189.002 26.4118L189.185 26.3202C190.668 26.2916 191.407 26.2343 191.407 26.1484C191.407 25.9652 191.47 25.8735 191.59 25.8735C191.67 25.9237 191.76 25.9551 191.854 25.9652L191.945 25.7934V19.7234C191.945 19.6089 192.003 19.5516 192.117 19.5516H192.564L192.655 19.0133C192.578 18.9634 192.489 18.9321 192.398 18.9217C191.871 18.9847 191.573 19.0133 191.499 19.0133C191.513 18.9167 191.505 18.8181 191.474 18.7253C191.444 18.6325 191.392 18.5482 191.323 18.4791C191.254 18.4101 191.169 18.3582 191.077 18.3276C190.984 18.2971 190.885 18.2887 190.789 18.3033V17.8566L191.407 17.5016V11.5118L191.945 11.1567V10.2634C191.945 10.1489 192.003 10.0916 192.117 10.0916H192.736C192.896 10.1028 193.056 10.0711 193.199 10ZM192.839 19.0019V19.0935H193.01V19.0019H192.839ZM193.291 19.0019V19.0935H193.457V19.0019H193.291ZM195.507 26.3088V26.4004C195.507 26.5263 195.587 26.5836 195.696 26.5836H197.317C197.425 26.5836 197.483 26.5263 197.483 26.4004V26.3088H195.507ZM197.912 14.73C197.912 14.7815 197.912 14.8102 197.838 14.8102C197.889 15.3828 197.912 15.8524 197.912 16.1501V16.6884C197.912 16.7514 197.912 16.7801 197.838 16.7801L197.912 16.9518V17.0434C197.912 17.576 197.677 17.8451 197.202 17.8451V18.3834C197.677 18.4178 197.912 18.5037 197.912 18.6469H197.838C197.88 18.7288 197.905 18.8183 197.912 18.9102H200.06V19.0935H199.258L198.903 19.5402H198.462V20.4335H201.222C202.419 20.4335 203.226 20.1357 203.639 19.5402C204.211 19.5402 204.52 19.3283 204.52 18.9102H203.719L203.547 18.8301C203.652 18.4805 203.709 18.1184 203.719 17.7535V17.0434C203.719 16.4193 203.18 15.7379 202.115 14.9934C201.984 14.8674 201.388 14.7815 200.34 14.73L200.157 14.8102L199.968 14.73C199.916 14.73 199.894 14.73 199.894 14.8102C199.773 14.7765 199.651 14.7497 199.527 14.73C199.006 14.7815 198.714 14.8102 198.645 14.8102C198.395 14.7661 198.143 14.7393 197.889 14.73H197.912ZM198.193 25.9537L198.01 25.8621C198.01 25.9823 197.952 26.0453 197.838 26.0453C197.88 26.1273 197.905 26.2169 197.912 26.3088C198.485 26.2572 198.96 26.2286 199.258 26.2286H199.349L199.521 26.3088L199.888 25.6903C199.647 25.1577 199.498 24.8886 199.441 24.8886H198.639C198.513 24.8886 198.422 25.2436 198.359 25.9537H198.193ZM202.648 32.9972H202.82C202.836 33.1337 202.901 33.2597 203.003 33.3522V33.5583C202.923 33.5583 202.803 33.4037 202.648 33.1117V32.9972ZM203.266 33.8905H203.358V34.0737H203.266V33.8905ZM210.138 18.9102H210.401V19.0935H210.138V18.9102ZM210.756 18.9102H211.06V19.0935H210.785L210.756 18.9102ZM211.203 18.9102H212.005V19.0935H211.203V18.9102Z" fill="#36F097"/>
<path d="M212.987 9.65466C213.251 9.70724 213.519 9.7379 213.789 9.7463H216.652C216.776 9.74659 216.898 9.71503 217.007 9.65466C217.78 9.65466 218.152 9.91809 218.152 10.4564L219.836 14.8027H220.637V15.0833H220.11C219.99 15.0833 219.927 15.1577 219.927 15.2493C219.927 15.341 220.196 15.4498 220.729 15.5299L220.82 15.696V16.1484H220.465C220.943 17.6067 222.008 20.3305 223.661 24.3199L224.107 24.2398H224.646L224.554 23.6098V23.2548C224.656 22.9708 224.718 22.674 224.737 22.373C224.712 22.3769 224.687 22.3748 224.663 22.367C224.639 22.3592 224.617 22.3458 224.599 22.3279C224.581 22.3101 224.568 22.2883 224.56 22.2642C224.552 22.2402 224.55 22.2147 224.554 22.1897V22.0981C224.554 22.0746 224.559 22.0512 224.568 22.0296C224.578 22.008 224.591 21.9885 224.608 21.9724C224.626 21.9563 224.646 21.9439 224.668 21.9359C224.69 21.928 224.714 21.9247 224.737 21.9263H224.8L224.984 22.0179L227.847 15.0833L228.293 15.1749C228.412 15.1517 228.528 15.1212 228.643 15.0833V14.8027H228.236C228.11 14.8027 228.053 14.7454 228.053 14.6366L229.92 9.83791L230.103 9.7463H235.961C236.087 9.7463 236.15 9.80356 236.15 9.91809V14.8027H236.671C236.797 14.8027 236.854 14.8943 236.854 14.9917L236.671 15.0833H236.15V21.9263H236.597C236.705 21.9263 236.763 22.0008 236.763 22.0981V22.1897C236.763 22.2813 236.677 22.3672 236.499 22.4531H236.408L236.224 22.373L236.15 22.5448V24.2627H237.118C237.244 24.2627 237.301 24.3371 237.301 24.4344V30.1265C237.305 30.1514 237.303 30.177 237.295 30.201C237.287 30.225 237.274 30.2468 237.256 30.2647C237.238 30.2826 237.216 30.296 237.192 30.3038C237.168 30.3116 237.143 30.3136 237.118 30.3097H236.15V33.6883C236.15 33.8028 236.087 33.8601 235.961 33.8601H233.035C232.434 33.8601 231.546 33.8314 230.366 33.7799V30.8365L230.275 30.4014L230.458 30.3097H231.076L231.523 30.2181V25.4194C231.746 25.1037 231.869 24.729 231.878 24.3428C231.225 24.297 230.905 24.2111 230.905 24.0794C231.254 22.9341 231.517 22.3959 231.689 22.3959C231.861 22.3959 232.044 22.3386 232.044 22.2126V22.0408C231.632 22.0408 231.426 21.9492 231.426 21.766V20.1626H231.334C231.014 20.6964 230.776 21.2756 230.63 21.8805C230.985 21.9607 231.168 22.0465 231.168 22.1439C231.168 22.2412 230.956 22.4188 230.532 22.4989C230.532 22.4474 230.532 22.4188 230.458 22.4188C230.155 23.0136 229.916 23.6395 229.748 24.2856H230.63C230.75 24.2856 230.813 24.36 230.813 24.4574C229.92 26.6735 229.353 28.1623 229.095 28.9125C228.706 29.8573 228.471 30.3326 228.385 30.3326H227.32L225.98 33.883H224.388C223.815 33.883 222.905 33.8544 221.72 33.8028C220.956 31.8711 220.574 30.7144 220.574 30.3326H221.365C221.479 30.3326 221.536 30.2697 221.536 30.1494C220.866 28.645 220.293 27.0996 219.818 25.5225V24.3772C219.784 24.3772 219.4 24.3772 218.673 24.297L218.581 24.4688V30.1608C218.584 30.1856 218.581 30.2106 218.573 30.2341C218.565 30.2575 218.551 30.2788 218.534 30.2964C218.516 30.314 218.495 30.3274 218.471 30.3357C218.448 30.3439 218.423 30.3468 218.398 30.3441H217.597C217.482 30.3441 217.425 30.4013 217.425 30.5159V30.7908H217.871C217.986 30.7908 218.043 30.848 218.043 30.9625C218.043 31.0828 217.986 31.1458 217.871 31.1458H217.425V33.7227C217.425 33.8372 217.362 33.8944 217.242 33.8944H214.126C213.628 33.8944 212.826 33.8658 211.733 33.8143L211.641 33.631V31.3405L212.202 30.9224L211.664 30.5674V30.4758C211.664 30.4522 211.669 30.4289 211.678 30.4073C211.687 30.3857 211.701 30.3662 211.718 30.3501C211.736 30.334 211.756 30.3216 211.778 30.3136C211.8 30.3057 211.824 30.3024 211.847 30.304H212.821L212.912 29.8573V24.7036L212.821 24.2684H211.847C211.822 24.2723 211.797 24.2703 211.773 24.2625C211.749 24.2546 211.727 24.2412 211.709 24.2234C211.691 24.2055 211.678 24.1837 211.67 24.1597C211.662 24.1356 211.66 24.1101 211.664 24.0851V16.3144C211.665 16.2914 211.67 16.2687 211.68 16.2477C211.689 16.2268 211.703 16.208 211.72 16.1925C211.737 16.177 211.758 16.1651 211.779 16.1575C211.801 16.1499 211.824 16.1468 211.847 16.1484H212.282V15.4612H211.847C211.822 15.4641 211.796 15.4612 211.772 15.4526C211.749 15.4441 211.727 15.4301 211.709 15.4118C211.691 15.3936 211.678 15.3715 211.67 15.3473C211.663 15.3231 211.66 15.2974 211.664 15.2722V15.1978H212.282C212.307 15.2005 212.332 15.1977 212.356 15.1894C212.379 15.1812 212.4 15.1677 212.418 15.1502C212.436 15.1326 212.449 15.1112 212.457 15.0878C212.466 15.0643 212.468 15.0393 212.466 15.0145V14.8256C212.343 14.828 212.222 14.8026 212.111 14.7512C212 14.8032 211.878 14.8287 211.756 14.8256L211.664 14.6595V12.7011C211.664 12.5769 211.695 12.4546 211.756 12.3461C211.696 12.2372 211.664 12.1152 211.664 11.991V9.94098C211.664 9.91743 211.669 9.8941 211.678 9.87248C211.687 9.85085 211.701 9.83137 211.718 9.81526C211.736 9.79915 211.756 9.78677 211.778 9.77884C211.8 9.77092 211.824 9.76763 211.847 9.7692H212.374C212.585 9.78421 212.796 9.74477 212.987 9.65466ZM217.442 19.7102V24.2398H218.587V22.9055C218.348 21.7946 217.963 20.7202 217.442 19.7102ZM224.107 14.8027H224.646C224.658 14.8018 224.67 14.8036 224.682 14.8079C224.693 14.8122 224.704 14.8189 224.712 14.8276C224.721 14.8363 224.728 14.8468 224.732 14.8583C224.736 14.8698 224.738 14.8821 224.737 14.8943L224.909 14.8027H225.001V15.0833H224.107C223.993 15.0833 223.936 15.0203 223.936 14.8943L224.107 14.8027ZM224.909 24.2398C224.909 24.297 224.875 24.3199 224.818 24.3199C225.218 25.4919 225.516 26.1447 225.711 26.2784L226.157 24.7666C226.058 24.6365 225.995 24.4824 225.974 24.3199L224.909 24.2398ZM225.356 22.0981V22.373H225.447C225.562 22.373 225.619 22.3157 225.619 22.1897V21.9263H225.539C225.413 21.9435 225.373 22.0008 225.373 22.0981H225.356ZM226.501 14.8027H227.394V15.0833H226.518C226.392 15.0833 226.335 15.0203 226.335 14.8943L226.501 14.8027Z" fill="#36F097"/>
<path d="M237.605 9.69476H243.743C243.863 9.69476 243.955 10.0154 244.018 10.6625H244.992C245.112 10.6625 245.175 10.7542 245.175 10.8515L244.9 11.0348C244.785 10.9934 244.666 10.9627 244.545 10.9431C244.436 11.0028 244.314 11.0343 244.19 11.0348V10.9431C244.109 10.9915 244.02 11.0227 243.926 11.0348V21.5369C243.926 21.6743 244.161 21.7603 244.637 21.7946C244.745 21.7342 244.867 21.7027 244.992 21.703C245.035 21.8017 245.097 21.8912 245.175 21.9664V22.2413C245.175 22.3215 245.083 22.4131 244.9 22.5047H244.373C244.19 22.5047 244.098 22.5047 244.098 22.4131L243.663 22.5047H242.77C242.644 22.5047 242.587 22.5849 242.587 22.6937V23.043C242.586 23.0665 242.591 23.0898 242.601 23.1115C242.61 23.1331 242.624 23.1526 242.641 23.1687C242.658 23.1848 242.678 23.1972 242.7 23.2051C242.723 23.2131 242.746 23.2163 242.77 23.2147H244.637V29.445C244.633 29.5696 244.665 29.6926 244.728 29.8001C244.7 29.9235 244.633 30.0344 244.535 30.1152C244.438 30.196 244.316 30.2422 244.19 30.2468C244.191 30.2345 244.189 30.2222 244.185 30.2107C244.18 30.1992 244.174 30.1887 244.165 30.1801C244.156 30.1714 244.146 30.1647 244.134 30.1604C244.123 30.1561 244.111 30.1543 244.098 30.1551L244.018 30.3384V32.9152C244.018 33.0412 244.093 33.0985 244.19 33.0985C244.298 33.0381 244.421 33.0066 244.545 33.0069C244.666 33.224 244.729 33.4685 244.728 33.7169L244.545 33.8085H240.628C240.13 33.8085 239.328 33.8086 238.234 33.7169V33.213L237.605 32.858C237.607 32.8455 237.605 32.8327 237.602 32.8207C237.598 32.8087 237.591 32.7978 237.582 32.7889C237.573 32.78 237.562 32.7733 237.55 32.7693C237.538 32.7654 237.525 32.7644 237.513 32.7663L237.605 32.1365V31.6096C237.609 31.4849 237.577 31.3615 237.513 31.2546C237.576 31.1471 237.608 31.0241 237.605 30.8996V30.4529C237.605 30.3441 237.335 30.1895 236.803 30.0063C236.751 29.9273 236.72 29.8368 236.711 29.7428C236.809 29.5023 236.9 29.3763 236.986 29.3763H237.341C237.444 29.3763 237.536 29.6455 237.605 30.178H238.051C238.171 30.178 238.234 30.1208 238.234 30.0063V23.4209C238.237 23.3962 238.234 23.3712 238.226 23.3477C238.218 23.3242 238.204 23.3029 238.187 23.2853C238.169 23.2677 238.148 23.2543 238.124 23.2461C238.101 23.2378 238.076 23.2349 238.051 23.2377C237.009 23.1804 236.385 23.146 236.184 23.146L236.093 22.9742V22.7165C236.093 22.6249 236.179 22.5333 236.356 22.436C236.369 22.434 236.381 22.435 236.393 22.4389C236.405 22.4428 236.416 22.4495 236.425 22.4585C236.434 22.4674 236.441 22.4783 236.445 22.4903C236.449 22.5024 236.45 22.5151 236.448 22.5276L236.631 22.436H238.498C238.521 22.4387 238.545 22.4362 238.567 22.4285C238.589 22.4209 238.609 22.4083 238.625 22.3917C238.642 22.3752 238.655 22.3552 238.662 22.3331C238.67 22.311 238.672 22.2874 238.67 22.2642V21.9893L238.498 21.7259L237.868 21.8175H237.696C237.61 21.8175 237.519 21.7316 237.433 21.5598V11.2524L237.513 11.0805C237.349 11.0031 237.167 10.9715 236.986 10.9889V10.8H237.433V9.92383C237.45 9.73486 237.507 9.69476 237.605 9.69476ZM238.051 10.84C238.051 10.9603 238.131 11.0233 238.234 11.0233H238.406C238.431 11.026 238.456 11.0231 238.479 11.0149C238.503 11.0067 238.524 10.9932 238.542 10.9756C238.559 10.9581 238.573 10.9367 238.581 10.9133C238.589 10.8898 238.592 10.8648 238.59 10.84C238.593 10.8149 238.591 10.7892 238.583 10.765C238.575 10.7408 238.562 10.7187 238.544 10.7004C238.527 10.6822 238.505 10.6683 238.481 10.6597C238.457 10.6511 238.432 10.6482 238.406 10.6511H238.234C238.114 10.6911 238.051 10.7541 238.051 10.8801V10.84Z" fill="#36F097"/>
<path d="M245.307 16.1713H245.479C245.599 16.1713 245.662 16.2572 245.662 16.3546C245.662 16.4519 245.513 16.5722 245.215 16.618L245.124 16.4462V16.3546C245.141 16.2343 245.204 16.1713 245.307 16.1713ZM248.502 9.69477C249.071 9.69477 250.371 9.72533 252.402 9.78641C254.479 12.8405 255.635 14.4076 255.872 14.4877C256.101 14.4877 256.445 14.6939 256.845 15.1062H259.709C259.732 15.1062 259.755 15.1109 259.777 15.1203C259.799 15.1296 259.818 15.1433 259.834 15.1605C259.85 15.1777 259.863 15.198 259.871 15.2202C259.879 15.2424 259.882 15.2659 259.88 15.2895C259.883 15.3127 259.881 15.3362 259.873 15.3583C259.865 15.3804 259.853 15.4005 259.836 15.417C259.82 15.4336 259.8 15.4461 259.777 15.4538C259.755 15.4614 259.732 15.464 259.709 15.4612H259.434C259.31 15.4653 259.188 15.4377 259.079 15.3811C258.97 15.4389 258.847 15.4666 258.724 15.4612C258.6 15.4653 258.478 15.4377 258.369 15.3811L257.842 15.4612H257.304L257.132 15.3811L257.04 15.5528C257.746 16.492 259.464 18.9505 262.194 22.9284L261.747 23.1117C262.203 23.8774 262.741 24.5916 263.351 25.2419L263.442 24.7952V24.3486C263.399 23.8896 263.21 23.4563 262.904 23.1117C263.202 23.0487 263.351 22.9914 263.351 22.9284C263.144 22.6672 262.993 22.3674 262.904 22.0466C262.983 21.9948 263.073 21.9633 263.167 21.955C263.011 21.7856 262.917 21.5669 262.904 21.3365V16.6065C262.606 16.6065 262.457 16.6065 262.457 16.5263L262.286 16.6065C262.165 16.6065 262.102 16.5493 262.102 16.4347V16.3431C262.102 16.2228 262.182 16.1598 262.286 16.1598H262.904V14.5679C262.543 14.5679 262.366 14.5107 262.366 14.3847V9.941L262.457 9.77494C263.637 9.71195 264.53 9.6833 265.126 9.6833H268.321C268.334 9.68135 268.346 9.6824 268.358 9.68631C268.37 9.69022 268.381 9.69691 268.39 9.70585C268.399 9.71478 268.406 9.72568 268.41 9.73769C268.414 9.7497 268.415 9.76247 268.413 9.77494L268.596 9.6833C268.619 9.68318 268.642 9.68799 268.664 9.69739C268.685 9.70679 268.704 9.72057 268.72 9.73786C268.736 9.75515 268.747 9.77556 268.755 9.79773C268.762 9.81991 268.764 9.84334 268.762 9.86655V14.4477C269.151 14.4477 269.335 14.5393 269.398 14.7111V15.9594C269.398 16.0511 269.306 16.137 269.123 16.2229H268.596V16.4977H269.123C269.209 16.4977 269.3 16.5893 269.398 16.7611V22.8483L268.762 23.2033V26.6391C268.762 26.7136 268.59 26.8338 268.241 26.9942L268.321 27.6241V29.7772C268.613 29.7772 268.762 29.8344 268.762 29.9432V33.213L268.859 33.6597L268.67 33.7513H264.662C264.089 33.7513 263.185 33.7227 261.993 33.6597C260.36 31.1439 259.405 29.844 259.13 29.76C258.861 29.76 258.558 29.4279 258.248 28.7693C257.719 28.1835 257.269 27.5308 256.908 26.8281H257.172V26.6449L254.687 23.0945C254.984 23.0315 255.133 22.9743 255.133 22.9113L253.885 21.1361V19.8877C253.885 19.5556 253.564 18.9658 252.911 18.1126H252.86V22.8311L252.339 23.1861V23.3579H253.307C253.33 23.3579 253.353 23.3626 253.375 23.372C253.397 23.3813 253.416 23.395 253.432 23.4122C253.448 23.4294 253.461 23.4497 253.469 23.4719C253.477 23.4941 253.48 23.5176 253.478 23.5412V23.8046C253.478 23.8905 253.392 23.9821 253.215 24.068H252.339L252.241 25.1331V27.8016L252.339 28.2483C252.175 28.3721 251.971 28.4312 251.766 28.4143V28.9869L252.213 29.342V32.3598L252.31 32.8866C252.246 32.9939 252.212 33.1166 252.213 33.2416L252.31 33.6883L252.121 33.7799H248.222C247.712 33.7799 246.91 33.7513 245.816 33.6883L245.725 33.5165V33.4249C245.723 33.4124 245.724 33.3996 245.728 33.3876C245.732 33.3756 245.738 33.3647 245.747 33.3558C245.756 33.3469 245.767 33.3402 245.779 33.3363C245.791 33.3323 245.804 33.3313 245.816 33.3333L245.725 33.1615V29.342L245.29 28.9869V28.6319L245.725 28.2769V24.2684C245.725 24.1806 245.816 24.089 246 23.9936H246.79C246.91 23.9936 246.973 23.9363 246.973 23.8217V23.5583C246.976 23.5336 246.973 23.5086 246.965 23.4851C246.957 23.4617 246.943 23.4403 246.926 23.4227C246.908 23.4051 246.887 23.3917 246.863 23.3835C246.84 23.3752 246.815 23.3724 246.79 23.3751H245.908C245.782 23.3751 245.725 23.3178 245.725 23.2033C245.725 23.0888 245.799 23.0201 245.908 23.0201H246.355V22.8483C246.344 22.695 246.371 22.5414 246.435 22.4016L246.355 21.955L246.435 21.5999C246.435 21.5369 246.435 21.5083 246.355 21.5083L246.435 21.0617V20.8898C246.435 20.6551 246.435 20.5348 246.355 20.5348L246.435 19.9049V19.5499C246.435 18.7768 246.435 17.7747 246.355 16.5378L246.435 16.3546L246.355 16.1713C246.406 15.696 246.492 15.4612 246.618 15.4612H247.42C247.832 15.4612 248.479 15.4612 249.361 15.3811V15.1978H249.287C248.954 15.2097 248.621 15.1789 248.296 15.1062C247.917 15.1677 247.534 15.1983 247.151 15.1978C246.578 15.1978 246.269 14.9917 246.269 14.5794C245.908 14.5794 245.731 14.4935 245.731 14.316V9.95246L245.822 9.78641C247.134 9.73487 247.992 9.69477 248.502 9.69477ZM261.289 16.1713H261.381C261.501 16.1713 261.564 16.2572 261.564 16.3546V16.4462C261.564 16.5607 261.501 16.618 261.381 16.618C261.26 16.618 261.203 16.5321 261.117 16.3546C261.134 16.2343 261.192 16.1713 261.289 16.1713ZM263.511 22.4016C263.511 22.5161 263.585 22.5734 263.694 22.5734V22.4016H263.511ZM263.866 22.665V22.8483H263.958V22.665H263.866Z" fill="#36F097"/>
<path d="M276.613 9.66614H281.858C281.961 9.66614 282.431 10.926 283.29 13.3997L283.553 13.5715H284.447C284.607 13.6918 285.311 15.5929 286.577 19.2979L287.207 21.0731L287.024 21.1647H284.973V21.2563C284.973 21.5713 285.151 21.7431 285.512 21.7831L286.05 21.703H286.13C286.382 21.8366 287.214 24.0871 288.627 28.4544L288.444 28.5517C288.328 28.5108 288.209 28.4782 288.089 28.4544C288.037 28.4544 288.008 28.4887 288.008 28.5517L287.379 28.4544H286.932C286.817 28.4544 286.76 28.5346 286.76 28.6434C287.075 29.5882 287.281 30.0635 287.379 30.0635H289.165C289.28 30.0635 289.337 30.138 289.337 30.2468V30.3212C289.337 30.4472 289.28 30.5102 289.165 30.5102H287.218C287.094 30.5126 286.971 30.4809 286.863 30.4185C286.751 30.4796 286.625 30.5111 286.497 30.5102H284.63L284.011 30.4185L283.92 30.6018C283.921 30.6249 283.926 30.6476 283.936 30.6685C283.945 30.6895 283.959 30.7082 283.976 30.7237C283.993 30.7392 284.013 30.7511 284.035 30.7587C284.057 30.7663 284.08 30.7694 284.103 30.7678H289.44C289.612 30.7678 290.013 31.7528 290.585 33.7169V33.7857H283.908C283.809 33.7857 283.454 32.7721 282.843 30.7449H278.125C278.013 30.6957 277.892 30.6703 277.77 30.6703C277.647 30.6703 277.527 30.6957 277.415 30.7449C277.294 30.7449 277.231 30.6934 277.231 30.5789C277.244 30.5808 277.257 30.5798 277.269 30.5759C277.281 30.572 277.292 30.5653 277.301 30.5563C277.309 30.5474 277.316 30.5365 277.32 30.5245C277.324 30.5125 277.325 30.4997 277.323 30.4873C278.417 30.4243 279.218 30.3956 279.728 30.3956H282.591C282.615 30.3984 282.638 30.3959 282.66 30.3882C282.682 30.3805 282.702 30.368 282.719 30.3514C282.735 30.3349 282.748 30.3148 282.756 30.2927C282.763 30.2706 282.766 30.2471 282.763 30.2239L282.5 30.0406H280.713C280.644 30.0406 280.467 29.7715 280.186 29.2389H279.476V29.3305C279.476 29.382 279.476 29.6169 279.556 30.0406H278.755C278.692 30.0406 278.485 29.7715 278.136 29.2389H272.982C272.639 29.2389 272.433 29.4737 272.364 29.9432L272.536 30.0406H274.048C274.168 30.0406 274.231 30.1151 274.231 30.2239V30.2983L273.086 33.7857H266.283V33.694L267.531 30.1322L264.862 30.0406C264.742 30.0406 264.679 29.9833 264.679 29.8688C264.977 28.9125 265.189 28.4315 265.309 28.4315H267.714C268.144 28.4315 268.436 27.9333 268.596 26.9255C268.699 26.9255 268.997 26.1753 269.489 24.7036L270.474 21.8404V21.7603H269.581C269.461 21.1876 269.438 21.0101 269.518 21.1876C269.438 21.096 270.228 21.0559 271.894 21.0559C271.978 21.0559 272.452 19.8419 273.315 17.4139L274.563 13.7433V13.6517H274.116V13.5601C274.484 12.2468 274.963 10.9671 275.548 9.73485L276.613 9.66614ZM279.476 17.4082C278.835 19.8935 278.388 21.1418 278.136 21.1418H276.086C275.972 21.1418 275.886 21.3193 275.823 21.6801H276.338C276.687 21.7144 276.865 21.8003 276.865 21.9435C276.292 23.7759 275.972 24.7208 275.972 24.8067L276.418 24.8811L277.048 24.8067C277.13 24.8489 277.22 24.8742 277.312 24.8811L277.85 24.8067C277.901 24.8067 277.93 24.8067 277.93 24.8811L278.377 24.8067H279.888C279.951 24.8067 279.98 24.8067 279.98 24.8811C280.576 24.8315 280.873 24.7456 280.873 24.6234V24.5318C280.532 23.7964 280.263 23.0292 280.072 22.2413C280.072 21.9321 279.803 21.7545 279.27 21.7144C279.262 21.5488 279.198 21.391 279.087 21.2678C279.087 21.1418 279.173 21.0845 279.27 21.0845H280.782C280.484 19.9965 280.102 18.7825 279.636 17.4426L279.476 17.4082Z" fill="#36F097"/>
<path d="M288.008 9.65466H294.17C294.284 9.65466 294.376 10.0097 294.433 10.7312C294.731 10.7312 294.88 10.7885 294.88 10.903V12.7813L294.17 13.3196H293.368C293.248 13.3196 293.185 13.394 293.185 13.4913V13.6746H294.17C294.284 13.6746 294.341 13.7319 294.341 13.8464V23.1403L294.261 23.3064C294.674 23.398 294.88 23.4896 294.88 23.587V28.9354C294.88 29.0557 294.96 29.1186 295.063 29.1186C295.166 29.1186 295.235 29.09 295.235 29.027L296.128 29.1186H302.834L303.006 29.2103L302.925 29.6569V32.3368C302.925 32.4514 302.862 32.5087 302.742 32.5087L302.204 32.417C302.066 32.4881 301.912 32.5198 301.757 32.5087V32.6919C301.797 32.6919 301.981 32.6919 302.295 32.7721L302.834 32.6919L302.925 32.8637V33.6654C302.928 33.6901 302.925 33.7151 302.917 33.7386C302.909 33.7621 302.895 33.7834 302.878 33.801C302.86 33.8186 302.839 33.832 302.815 33.8402C302.792 33.8485 302.767 33.8513 302.742 33.8486H290.86C290.362 33.8486 289.56 33.82 288.455 33.757V32.9553C288.455 32.8694 288.369 32.7778 288.191 32.6919H287.39V32.5087H288.191C288.272 32.5087 288.357 32.4228 288.455 32.2452V23.6557C288.042 23.4266 287.836 23.2777 287.836 23.209V13.8464C287.836 13.7319 287.476 13.6459 286.76 13.583V13.4913C287.285 13.4812 287.79 13.2912 288.191 12.9531C288.369 12.9531 288.455 12.8958 288.455 12.7813V11.1664C288.455 10.8114 288.249 10.6396 287.836 10.6396V9.83791C287.854 9.73484 287.911 9.65466 288.008 9.65466Z" fill="#36F097"/>
<path d="M54.1544 17.0646V14.4648H45.3472V9.96961H41.0982V14.4648H38.3209V17.0646H41.0982V32.9782H37.1413V34.6561H41.0982V39.2372H9.60314V37.2673H14.7054V34.6675H9.60314V25.8546H7.88523V24.1711H9.60314V11.7734H6.73995V10.8057H9.60314V7.08926H11.6704V5.41144H9.60314V4.26616H41.0982V8.27463H45.3472V0H43.0567V2.6055H41.4876V0H10.7026V1.71791H9.16221V0H5.33127V5.38851H3.39003V7.06637H5.33127V34.6331H0V37.2329H5.33127V43.4575H7.25533V41.688H8.79572V43.4575H45.3472V34.6561H51.8237V32.9782H45.3472V17.0646H54.1544ZM44.7803 34.6561V32.9782V34.6561Z" fill="#36F097"/>
<path d="M26.0723 17.4311L16.0111 11.5387V17.7232L18.6967 19.401L14.0698 21.8118V27.9906L26.0723 21.5656V17.4311Z" fill="#36F097"/>
<path d="M35.0857 26.725H23.7417V30.8194H35.0857V26.725Z" fill="#36F097"/>
</svg>
