<svg width="25" height="22" viewBox="0 0 25 22" fill="none" xmlns="http://www.w3.org/2000/svg">
<path d="M24.4701 17.3456L20.4092 21.6998C20.3214 21.7944 20.215 21.8699 20.0967 21.9215C19.9785 21.9731 19.8508 21.9999 19.7217 22H0.471815C0.380004 22 0.290199 21.9731 0.213396 21.9228C0.136596 21.8725 0.0761331 21.8009 0.0394093 21.7168C0.00268544 21.6326 -0.0087041 21.5396 0.00663625 21.4491C0.0219766 21.3585 0.0633777 21.2744 0.125775 21.2071L4.18201 16.8529C4.26985 16.7584 4.3762 16.6829 4.4945 16.6312C4.61277 16.5796 4.74044 16.5529 4.86951 16.5527H24.1194C24.212 16.5508 24.3032 16.5764 24.3814 16.6261C24.4595 16.6759 24.5214 16.7477 24.5587 16.8324C24.5963 16.9172 24.6078 17.0112 24.592 17.1025C24.5762 17.1938 24.5338 17.2784 24.4701 17.3456ZM20.4092 8.57547C20.3211 8.48133 20.2146 8.40616 20.0964 8.35453C19.9782 8.30292 19.8507 8.27595 19.7217 8.27529H0.471815C0.380004 8.27533 0.290199 8.30215 0.213396 8.35247C0.136596 8.40277 0.0761331 8.47439 0.0394093 8.55854C0.00268544 8.64268 -0.0087041 8.7357 0.00663625 8.82622C0.0219766 8.91674 0.0633777 9.00085 0.125775 9.0682L4.18201 13.4246C4.27017 13.5188 4.37662 13.5939 4.49482 13.6456C4.61302 13.6972 4.74053 13.7242 4.86951 13.7248H24.1194C24.2111 13.7243 24.3005 13.6972 24.377 13.6467C24.4536 13.5962 24.5136 13.5246 24.55 13.4405C24.5865 13.3565 24.5977 13.2636 24.5821 13.1733C24.5668 13.083 24.5255 12.9991 24.4632 12.9319L20.4092 8.57547ZM0.471815 5.44736H19.7217C19.8508 5.44724 19.9785 5.4205 20.0967 5.36885C20.215 5.31721 20.3214 5.24173 20.4092 5.14715L24.4701 0.793014C24.5338 0.725758 24.5762 0.641148 24.592 0.549828C24.6078 0.458508 24.5963 0.364556 24.5587 0.279797C24.5214 0.195038 24.4595 0.123258 24.3814 0.0734896C24.3032 0.0237208 24.212 -0.00181337 24.1194 0.000100192H4.86951C4.74044 0.000236051 4.61277 0.0269626 4.4945 0.0786133C4.3762 0.130264 4.26985 0.205731 4.18201 0.300308L0.125775 4.65445C0.0633777 4.7218 0.0219766 4.8059 0.00663625 4.89642C-0.0087041 4.98694 0.00268544 5.07996 0.0394093 5.16411C0.0761331 5.24826 0.136596 5.31987 0.213396 5.37018C0.290199 5.4205 0.380004 5.44731 0.471815 5.44736Z" fill="url(#paint0_linear_917_39134)"/>
<defs>
<linearGradient id="paint0_linear_917_39134" x1="2.07597" y1="22.5248" x2="22.2609" y2="-0.231357" gradientUnits="userSpaceOnUse">
<stop offset="0.08" stop-color="#9945FF"/>
<stop offset="0.3" stop-color="#8752F3"/>
<stop offset="0.5" stop-color="#5497D5"/>
<stop offset="0.6" stop-color="#43B4CA"/>
<stop offset="0.72" stop-color="#28E0B9"/>
<stop offset="0.97" stop-color="#19FB9B"/>
</linearGradient>
</defs>
</svg>
