<svg width="64" height="64" viewBox="0 0 64 64" fill="none" xmlns="http://www.w3.org/2000/svg">
<path fill-rule="evenodd" clip-rule="evenodd" d="M12.8 38.4C12.8 27.7334 19.2 18.1334 32 6.40002C44.8 18.1334 51.2 27.7334 51.2 38.4C51.2 43.4922 49.1771 48.3758 45.5764 51.9765C41.9757 55.5772 37.0921 57.6 32 57.6C26.9078 57.6 22.0242 55.5772 18.4235 51.9765C14.8228 48.3758 12.8 43.4922 12.8 38.4ZM46.7285 35.4262C41.2715 33.3696 35.3621 36.1088 29.824 38.6688C25.3141 40.751 21.0517 42.7222 17.4805 41.9072C17.2047 40.7586 17.0658 39.5813 17.0667 38.4C17.0667 30.3446 21.4485 22.4939 32 12.2624C41.2501 21.231 45.76 28.3734 46.7285 35.4304V35.4262Z" fill="#36F097"/>
</svg>
